<svg xmlns="http://www.w3.org/2000/svg" viewBox="0 0 120 120" role="img" aria-labelledby="title desc">
  <title id="title">COTECMAR emblema</title>
  <desc id="desc">Logotipo simplificado de COTECMAR con símbolo náutico</desc>
  <defs>
    <linearGradient id="badgeGradient" x1="0%" y1="0%" x2="100%" y2="100%">
      <stop offset="0%" stop-color="#61a3ff" />
      <stop offset="45%" stop-color="#3677e0" />
      <stop offset="100%" stop-color="#173b81" />
    </linearGradient>
    <linearGradient id="sailGradient" x1="0%" y1="0%" x2="100%" y2="100%">
      <stop offset="0%" stop-color="#ffffff" stop-opacity="0.95" />
      <stop offset="100%" stop-color="#b7ddff" stop-opacity="0.9" />
    </linearGradient>
  </defs>
  <rect width="120" height="120" rx="24" ry="24" fill="url(#badgeGradient)" />
  <g fill="url(#sailGradient)" stroke="#0f1e38" stroke-width="0.8" stroke-opacity="0.15">
    <path d="M31 88c10.4-18.5 29.7-30.6 54.2-33.8C71 43.6 54.7 32 37.3 32c-6.4 0-12.6 1.6-18.3 4.7 2.2 16.5 5.1 35.4 12 51.3Z" />
    <path d="M51.2 86.5c14-8.8 27.7-14 41.3-15.6-1-10.4-3.6-20.7-7.6-30.3-11.5 4.4-24.1 16-33.7 45.9Z" />
    <path d="M24.5 92.6c13.6 3.8 27.9 3.5 41.3-0.8 12-3.9 23.5-7.1 35.3-6.2-7.6-7.9-16.4-12-25.8-12-19.3 0-37.4 10.9-50.8 19Z" />
  </g>
  <text x="50%" y="78" text-anchor="middle" font-family="'Inter', 'Segoe UI', sans-serif" font-size="17" fill="#f5fbff" letter-spacing="3">
    COTECMAR
  </text>
</svg>
